<?xml version="1.0" encoding="utf-8"?>
<!-- Generator: Adobe Illustrator 16.0.0, SVG Export Plug-In . SVG Version: 6.00 Build 0)  -->
<!DOCTYPE svg PUBLIC "-//W3C//DTD SVG 1.1//EN" "http://www.w3.org/Graphics/SVG/1.1/DTD/svg11.dtd">
<svg version="1.1" id="Layer_1" xmlns="http://www.w3.org/2000/svg" xmlns:xlink="http://www.w3.org/1999/xlink" x="0px" y="0px"
	 width="350.994px" height="91.25px" viewBox="0 0 350.994 91.25" enable-background="new 0 0 350.994 91.25" xml:space="preserve">
<g>
	<defs>
		<rect id="SVGID_1_" y="0" width="350.994" height="91.25"/>
	</defs>
	<clipPath id="SVGID_2_">
		<use xlink:href="#SVGID_1_"  overflow="visible"/>
	</clipPath>
	<path clip-path="url(#SVGID_2_)" fill-rule="evenodd" clip-rule="evenodd" fill="#FFFFFF" d="M337.361,56.637
		c-0.942,0-2.057,0-3.371,0.057c-1.286,0.058-2.572,0.144-3.829,0.286v4.486c1.257,0.143,2.543,0.229,3.829,0.286
		c1.314,0.057,2.429,0.086,3.371,0.086c1.286,0,2.287-0.086,3.03-0.229c0.714-0.114,1.257-0.313,1.601-0.57
		c0.343-0.229,0.571-0.516,0.656-0.829c0.086-0.314,0.115-0.629,0.115-0.973c0-0.371-0.029-0.686-0.115-1
		c-0.085-0.313-0.313-0.6-0.656-0.829c-0.344-0.257-0.887-0.428-1.601-0.57C339.648,56.694,338.647,56.637,337.361,56.637
		 M350.994,60.066c0,1.172-0.2,2.286-0.601,3.287c-0.399,1.028-1.058,1.943-2.028,2.687c-0.943,0.771-2.259,1.371-3.888,1.8
		c-1.657,0.429-3.743,0.658-6.229,0.658h-1.144c-2.543,0-5.114-0.087-7.744-0.2c-2.601-0.144-5.115-0.372-7.516-0.629V41.633h8.316
		v8.545c1.172-0.086,2.314-0.144,3.485-0.172c1.144-0.028,2.315-0.058,3.458-0.058h1.144c2.486,0,4.572,0.229,6.229,0.658
		c1.629,0.428,2.944,1.028,3.888,1.8c0.971,0.772,1.629,1.658,2.028,2.687c0.4,1.029,0.601,2.115,0.601,3.287V60.066z"/>
	<path clip-path="url(#SVGID_2_)" fill-rule="evenodd" clip-rule="evenodd" fill="#FFFFFF" d="M287.408,60.723
		c1.257,0,2.086-0.286,2.516-0.886c0.399-0.629,0.656-1.486,0.714-2.629l0.942-15.575h26.35v26.035h-8.345V49.121h-10.346
		l-0.543,9.002c-0.086,1.629-0.313,3.087-0.657,4.344c-0.343,1.286-0.915,2.344-1.657,3.201c-0.771,0.829-1.743,1.486-2.943,1.915
		s-2.715,0.657-4.515,0.657c-0.687,0-1.401-0.028-2.145-0.114c-0.714-0.057-1.371-0.2-1.972-0.372v-7.173
		c0.372,0.057,0.829,0.114,1.314,0.143H287.408z"/>
	<polygon clip-path="url(#SVGID_2_)" fill-rule="evenodd" clip-rule="evenodd" fill="#FFFFFF" points="232.025,67.668 
		232.025,49.178 222.109,49.178 222.109,41.633 250.286,41.633 250.286,49.178 240.341,49.178 240.341,67.668 	"/>
	<polygon clip-path="url(#SVGID_2_)" fill-rule="evenodd" clip-rule="evenodd" fill="#FFFFFF" points="219.222,41.633 
		219.222,67.668 210.906,67.668 210.906,51.635 196.274,67.668 187.929,67.668 187.929,41.633 196.274,41.633 196.274,57.666 
		210.906,41.633 	"/>
	<polygon clip-path="url(#SVGID_2_)" fill-rule="evenodd" clip-rule="evenodd" fill="#FFFFFF" points="161.267,41.633 
		161.267,51.007 175.927,51.007 175.927,41.633 184.271,41.633 184.271,67.668 175.927,67.668 175.927,58.294 161.267,58.294 
		161.267,67.668 152.921,67.668 152.921,41.633 	"/>
	<path clip-path="url(#SVGID_2_)" fill-rule="evenodd" clip-rule="evenodd" fill="#FFFFFF" d="M124.544,57.952L124.544,57.952h17.69
		c-0.715,2.629-4.144,2.601-6.973,2.601h-15.947v7.03h15.747c8.859,0,14.974-2.201,14.974-11.917v-0.943V54.58v-0.973
		c0-9.717-6.115-11.917-14.974-11.917h-15.747v7.03h15.947c2.829,0,6.258-0.057,6.973,2.629h-17.69V57.952z"/>
	<path clip-path="url(#SVGID_2_)" fill-rule="evenodd" clip-rule="evenodd" fill="#FFFFFF" d="M258.603,57.952L258.603,57.952
		h17.689c-0.715,2.629-4.144,2.601-6.973,2.601h-15.947v7.03h15.747c8.859,0,14.974-2.201,14.974-11.917v-0.943V54.58v-0.973
		c0-9.717-6.114-11.917-14.974-11.917h-15.747v7.03h15.947c2.829,0,6.258-0.057,6.973,2.629h-17.689V57.952z"/>
	<path clip-path="url(#SVGID_2_)" fill-rule="evenodd" clip-rule="evenodd" fill="#234D61" d="M46.556,51.921
		c0.457,3.629,0.886,7.373,1.372,11.174c0.343,2.944-2.401,6.202-6.087,7.202c-2.915,0.8-6.516,1.743-9.888,2.743
		c-0.457,0.114,1.486-0.371-4.887,1.314c-6.344,1.715-6.487-0.686-6.487-3.744c-0.114-3.172-0.257-9.201-0.314-10.345
		c-0.115-2.572,2.314-5.516,5.429-6.545c4.544-1.514,9.202-3.057,13.975-4.629C43.126,47.977,46.213,49.207,46.556,51.921"/>
	<path clip-path="url(#SVGID_2_)" fill-rule="evenodd" clip-rule="evenodd" fill="#32B4AB" d="M36.868,23.972
		c0.114,1.715,0.229,3.458,0.343,5.201c0.114,1.315-0.114,2.515,1.6,2.63c0.6,0.057,1.343-0.086,2.058-0.343l0.286,2.715
		c-3.715,1.286-7.145,2.486-10.831,3.743c-4.973,1.744-8.888,6.459-8.774,10.603c0.029,1.601,0.086,3.229,0.115,4.858
		c-4.658,1.458-9.202,2.887-13.66,4.287c-4.544,1.458-8.117-0.743-8.002-4.773c0.143-5.2,0.286-10.288,0.428-15.231
		c0.115-3.629,3.573-7.916,7.831-9.574c6.201-2.429,12.631-4.972,19.261-7.573C32.353,18.627,36.611,20.142,36.868,23.972"/>
	<path clip-path="url(#SVGID_2_)" fill-rule="evenodd" clip-rule="evenodd" fill="#A1CD3A" d="M70.732,42.09
		c0.4,1.543,1.972,3.029,4.344,2.543l9.573-2.886c7.002-2.029,13.889,0.4,15.089,5.63c1.772,7.688,3.601,15.689,5.516,24.006
		c1.4,6.087-4.144,12.46-12.146,13.975c-10.173,1.973-19.89,3.829-29.177,5.63c-6.773,1.286-12.575-2.286-13.089-7.802
		c-0.514-5.344-1.029-10.546-1.515-15.633c2.601-0.657,5.23-1.343,7.888-2.029c6.373-1.629,11.145-7.229,10.402-12.26
		c-0.457-3.343-0.886-6.201-1.343-9.431L70.732,42.09z"/>
	<path clip-path="url(#SVGID_2_)" fill-rule="evenodd" clip-rule="evenodd" fill="#F8A71B" d="M40.297,31.63
		c0.257-0.086,0.486-0.143,0.714-0.257c2.43-0.943,3.601-2.001,3.401-4.516c-0.171-1.771-0.343-3.543-0.486-5.287
		c-0.343-3.886,3.658-8.687,9.002-10.774C60.73,7.71,68.875,4.539,77.334,1.224c6.144-2.43,12.088-1.144,13.06,3
		c1.314,5.659,2.657,11.489,4.058,17.519c1.057,4.715-3.801,10.431-10.688,12.546c-3.63,1.143-7.202,2.229-10.688,3.315
		c-0.915,0.286-2.858,1.372-2.372,4.344l0.028,0.143l-4.458,1.743c-0.457-3.115-0.914-6.23-1.372-9.431
		c-0.628-4.458-5.972-6.344-11.745-4.372c-4.029,1.4-8.03,2.772-12.003,4.143l-0.285-2.714
		C40.669,31.517,40.497,31.574,40.297,31.63"/>
	<path clip-path="url(#SVGID_2_)" fill-rule="evenodd" clip-rule="evenodd" fill="#FFFFFF" d="M272.262,20.97
		c0.344,0,0.716,0.029,1.059,0.086c0.371,0.029,0.771,0.086,1.2,0.172c0.399,0.085,0.6,0.285,0.6,0.657v0.543
		c0,0.371-0.171,0.543-0.543,0.543c-0.086,0-0.171,0-0.229-0.029c-0.313-0.085-0.656-0.114-1.027-0.171
		c-0.343-0.029-0.687-0.057-0.973-0.057c-0.828,0-1.429,0.114-1.8,0.371c-0.372,0.257-0.571,0.6-0.571,1.029v0.229
		c0,0.285,0.113,0.543,0.285,0.714c0.172,0.172,0.515,0.343,0.943,0.515l2.6,1.086c0.829,0.342,1.43,0.743,1.802,1.2
		c0.371,0.457,0.543,1,0.543,1.629v0.514c0,1.086-0.372,1.944-1.086,2.487c-0.716,0.571-1.858,0.857-3.487,0.857
		c-0.914,0-1.943-0.143-3.057-0.429c-0.43-0.114-0.63-0.343-0.572-0.686l0.029-0.657c0.027-0.371,0.199-0.543,0.514-0.543
		c0.029,0,0.143,0,0.286,0.029c0.485,0.143,0.942,0.257,1.429,0.343c0.457,0.085,0.886,0.142,1.314,0.142
		c0.886,0,1.485-0.142,1.801-0.342c0.343-0.229,0.514-0.601,0.514-1.086v-0.229c0-0.372-0.086-0.686-0.257-0.915
		c-0.172-0.228-0.457-0.428-0.886-0.6l-2.687-1.029c-0.829-0.314-1.429-0.714-1.801-1.143c-0.343-0.457-0.543-0.971-0.543-1.572
		v-0.342c0-1.086,0.372-1.915,1.115-2.487C269.52,21.256,270.662,20.97,272.262,20.97 M260.888,22.685
		c-0.714,0-1.285,0.2-1.714,0.572c-0.429,0.4-0.658,0.971-0.658,1.714v1.172h4.773v-1.086c0-0.8-0.229-1.4-0.686-1.8
		C262.174,22.885,261.604,22.685,260.888,22.685 M260.888,20.97c1.544,0,2.744,0.372,3.544,1.115c0.801,0.714,1.2,1.8,1.2,3.201
		v1.429c0,0.371-0.085,0.657-0.228,0.828c-0.172,0.143-0.458,0.229-0.915,0.229h-5.974v1.429c0,0.829,0.229,1.429,0.658,1.772
		c0.457,0.371,1.171,0.571,2.172,0.571c0.429,0,0.914-0.057,1.429-0.114c0.515-0.028,0.972-0.114,1.429-0.2
		c0.058,0,0.115-0.028,0.2-0.028c0.343,0,0.515,0.2,0.571,0.543l0.029,0.628c0,0.343-0.201,0.543-0.658,0.658
		c-0.514,0.114-1.057,0.2-1.629,0.228c-0.543,0.057-1.057,0.086-1.514,0.086c-1.801,0-3.087-0.343-3.887-1.057
		c-0.771-0.686-1.144-1.772-1.144-3.201v-3.801c0-1.401,0.372-2.458,1.144-3.201C258.088,21.342,259.259,20.97,260.888,20.97
		 M250.658,20.97c0.371,0,0.714,0.029,1.085,0.058c0.343,0.057,0.715,0.114,1.144,0.171c0.4,0.114,0.601,0.343,0.601,0.686v0.629
		c0,0.343-0.172,0.514-0.543,0.514h-0.172c-0.058-0.028-0.114-0.028-0.171-0.057c-0.315-0.057-0.657-0.114-0.973-0.143
		c-0.313-0.029-0.657-0.057-0.971-0.057c-0.858,0-1.515,0.229-1.944,0.629c-0.428,0.428-0.657,1.028-0.657,1.8v3.887
		c0,0.829,0.229,1.457,0.715,1.857s1.114,0.6,1.887,0.6c0.428,0,0.8-0.028,1.114-0.085c0.313-0.029,0.656-0.086,0.942-0.143
		c0.058-0.029,0.144-0.029,0.229-0.029c0.343,0,0.514,0.172,0.543,0.543l0.057,0.629c0,0.2-0.029,0.372-0.143,0.457
		c-0.114,0.115-0.286,0.172-0.601,0.229c-0.399,0.086-0.8,0.143-1.172,0.171c-0.371,0-0.714,0.029-1.029,0.029
		c-3.285,0-4.914-1.458-4.914-4.401v-3.572c0-1.429,0.399-2.515,1.199-3.258C247.686,21.342,248.943,20.97,250.658,20.97
		 M241.228,16.512c1.028,0,1.543,0.372,1.543,1.115v0.686c0,0.714-0.515,1.086-1.543,1.086c-1,0-1.516-0.372-1.516-1.086v-0.686
		C239.712,16.884,240.228,16.512,241.228,16.512 M241.741,21.256c0.458,0,0.686,0.2,0.686,0.6v10.603c0,0.4-0.228,0.6-0.686,0.6
		h-0.971c-0.458,0-0.716-0.2-0.716-0.6V21.856c0-0.4,0.258-0.6,0.716-0.6H241.741z M237.34,21.256c0.43,0,0.658,0.143,0.658,0.429
		c0,0.028-0.029,0.114-0.058,0.257l-3.772,10.603c-0.114,0.343-0.371,0.514-0.771,0.514h-1.858c-0.4,0-0.657-0.171-0.771-0.514
		l-3.743-10.603c-0.029-0.143-0.058-0.2-0.058-0.257c0-0.286,0.229-0.429,0.628-0.429h1.059c0.428,0,0.686,0.172,0.771,0.515
		l3.059,9.773l3.028-9.773c0.115-0.343,0.372-0.515,0.772-0.515H237.34z M225.566,20.97c0.286,0,0.458,0.058,0.571,0.172
		c0.086,0.114,0.144,0.257,0.144,0.457v1.2c0,0.201-0.058,0.343-0.144,0.401c-0.086,0.085-0.199,0.114-0.399,0.085
		c-0.144,0-0.257-0.028-0.286-0.028h-0.257c-0.601,0-1.144,0.143-1.687,0.4c-0.515,0.286-1,0.714-1.4,1.314v7.488
		c0,0.4-0.229,0.6-0.686,0.6h-0.972c-0.457,0-0.687-0.2-0.687-0.6V21.856c0-0.4,0.229-0.6,0.687-0.6h0.829
		c0.457,0,0.686,0.2,0.686,0.6v1.172c0.485-0.657,1.058-1.172,1.657-1.515C224.252,21.142,224.88,20.97,225.566,20.97
		 M212.163,22.685c-0.714,0-1.286,0.2-1.714,0.572c-0.429,0.4-0.658,0.971-0.658,1.714v1.172h4.773v-1.086
		c0-0.8-0.229-1.4-0.687-1.8C213.449,22.885,212.878,22.685,212.163,22.685 M212.163,20.97c1.544,0,2.744,0.372,3.544,1.115
		c0.8,0.714,1.2,1.8,1.2,3.201v1.429c0,0.371-0.085,0.657-0.229,0.828c-0.172,0.143-0.458,0.229-0.915,0.229h-5.973v1.429
		c0,0.829,0.229,1.429,0.658,1.772c0.457,0.371,1.171,0.571,2.172,0.571c0.428,0,0.914-0.057,1.429-0.114
		c0.515-0.028,0.972-0.114,1.429-0.2c0.028,0,0.114-0.028,0.199-0.028c0.344,0,0.516,0.2,0.572,0.543l0.029,0.628
		c0,0.343-0.2,0.543-0.658,0.658c-0.514,0.114-1.057,0.2-1.629,0.228c-0.543,0.057-1.057,0.086-1.514,0.086
		c-1.802,0-3.088-0.343-3.888-1.057c-0.771-0.686-1.143-1.772-1.143-3.201v-3.801c0-1.401,0.372-2.458,1.143-3.201
		C209.363,21.342,210.534,20.97,212.163,20.97 M201.247,20.97c0.343,0,0.686,0.029,1.057,0.086c0.372,0.029,0.772,0.086,1.2,0.172
		c0.4,0.085,0.601,0.285,0.601,0.657v0.543c0,0.371-0.172,0.543-0.542,0.543c-0.086,0-0.173,0-0.229-0.029
		c-0.313-0.085-0.686-0.114-1.029-0.171c-0.371-0.029-0.686-0.057-1-0.057c-0.829,0-1.429,0.114-1.771,0.371
		c-0.371,0.257-0.572,0.6-0.572,1.029v0.229c0,0.285,0.086,0.543,0.286,0.714c0.172,0.172,0.486,0.343,0.943,0.515l2.601,1.086
		c0.829,0.342,1.429,0.743,1.8,1.2c0.372,0.457,0.543,1,0.543,1.629v0.514c-0.027,1.086-0.371,1.944-1.086,2.487
		c-0.714,0.571-1.886,0.857-3.485,0.857c-0.943,0-1.943-0.143-3.059-0.429c-0.429-0.114-0.629-0.343-0.572-0.686l0.029-0.657
		c0.029-0.371,0.2-0.543,0.514-0.543c0.029,0,0.115,0,0.286,0.029c0.457,0.143,0.943,0.257,1.401,0.343
		c0.485,0.085,0.914,0.142,1.313,0.142c0.887,0,1.516-0.142,1.829-0.342c0.344-0.229,0.515-0.601,0.515-1.086v-0.229
		c0-0.372-0.085-0.686-0.257-0.915c-0.172-0.228-0.457-0.428-0.887-0.6l-2.686-1.029c-0.829-0.314-1.429-0.714-1.8-1.143
		c-0.372-0.457-0.543-0.971-0.543-1.572v-0.342c0-1.086,0.371-1.915,1.113-2.487C198.475,21.256,199.646,20.97,201.247,20.97
		 M184.786,21.256c0.4,0,0.6,0.172,0.6,0.457c0,0.115,0,0.172-0.027,0.229l-5.745,15.09c-0.144,0.314-0.428,0.485-0.8,0.485h-0.914
		c-0.4,0-0.601-0.143-0.601-0.428c0-0.057,0-0.143,0.058-0.258l1.485-3.772h-0.286c-0.399,0-0.656-0.171-0.771-0.514l-3.457-10.603
		c-0.029-0.057-0.029-0.114-0.029-0.229c0-0.285,0.2-0.457,0.6-0.457h1.172c0.428,0,0.686,0.172,0.743,0.543l2.771,9.774
		l3.429-9.802c0.114-0.343,0.372-0.515,0.772-0.515H184.786z M168.84,18.113c0.4,0,0.6,0.2,0.6,0.6v2.543h2.915
		c0.457,0,0.686,0.2,0.686,0.6v0.486c0,0.4-0.229,0.6-0.686,0.6h-2.915v6.916c0,0.629,0.171,1.058,0.457,1.315
		c0.286,0.257,0.743,0.4,1.315,0.4c0.257,0,0.543,0,0.828-0.029c0.286-0.057,0.543-0.085,0.772-0.142c0.057,0,0.143-0.029,0.2-0.029
		c0.343,0,0.514,0.2,0.572,0.572l0.028,0.514c0,0.2-0.028,0.343-0.143,0.457c-0.086,0.086-0.257,0.172-0.457,0.2
		c-0.229,0.057-0.514,0.115-0.886,0.172c-0.343,0.028-0.657,0.057-0.943,0.057c-1.372,0-2.401-0.286-3.086-0.857
		c-0.658-0.543-1.001-1.487-1.001-2.801v-6.745h-1.228c-0.486,0-0.715-0.2-0.715-0.6v-0.486c0-0.4,0.229-0.6,0.715-0.6h1.228
		l0.372-2.572c0.057-0.371,0.257-0.571,0.657-0.571H168.84z M161.952,16.512c1.029,0,1.544,0.372,1.544,1.115v0.686
		c0,0.714-0.515,1.086-1.544,1.086c-1.028,0-1.543-0.372-1.543-1.086v-0.686C160.409,16.884,160.924,16.512,161.952,16.512
		 M162.438,21.256c0.457,0,0.686,0.2,0.686,0.6v10.603c0,0.4-0.229,0.6-0.686,0.6h-0.971c-0.458,0-0.686-0.2-0.686-0.6V21.856
		c0-0.4,0.228-0.6,0.686-0.6H162.438z M156.523,16.542c0.457,0,0.714,0.2,0.714,0.6v15.318c0,0.4-0.257,0.6-0.714,0.6h-0.972
		c-0.457,0-0.686-0.2-0.686-0.6V17.141c0-0.4,0.229-0.572,0.686-0.572L156.523,16.542z M150.121,16.512
		c1.029,0,1.543,0.372,1.543,1.115v0.686c0,0.714-0.514,1.086-1.543,1.086c-1,0-1.514-0.372-1.514-1.086v-0.686
		C148.607,16.884,149.121,16.512,150.121,16.512 M150.636,21.256c0.457,0,0.685,0.2,0.685,0.6v10.603c0,0.4-0.228,0.6-0.685,0.6
		h-0.972c-0.457,0-0.686-0.2-0.686-0.6V21.856c0-0.4,0.229-0.6,0.686-0.6H150.636z M143.177,20.97c0.371,0,0.714,0.029,1.086,0.058
		c0.343,0.057,0.743,0.114,1.143,0.171c0.4,0.114,0.629,0.343,0.629,0.686v0.629c0,0.343-0.2,0.514-0.572,0.514h-0.171
		C145.234,23,145.177,23,145.12,22.971c-0.314-0.057-0.657-0.114-0.972-0.143c-0.314-0.029-0.628-0.057-0.971-0.057
		c-0.857,0-1.486,0.229-1.943,0.629c-0.429,0.428-0.658,1.028-0.658,1.8v3.887c0,0.829,0.229,1.457,0.715,1.857s1.114,0.6,1.886,0.6
		c0.429,0,0.8-0.028,1.114-0.085c0.315-0.029,0.658-0.086,0.943-0.143c0.058-0.029,0.143-0.029,0.229-0.029
		c0.343,0,0.514,0.172,0.572,0.543l0.028,0.629c0,0.2-0.028,0.372-0.143,0.457c-0.085,0.115-0.285,0.172-0.6,0.229
		c-0.4,0.086-0.8,0.143-1.172,0.171c-0.342,0-0.685,0.029-1.028,0.029c-3.258,0-4.887-1.458-4.887-4.401v-3.572
		c0-1.429,0.371-2.515,1.172-3.258C140.205,21.342,141.462,20.97,143.177,20.97 M130.46,27.286c-0.8,0-1.401,0.2-1.772,0.543
		c-0.4,0.372-0.6,0.858-0.6,1.515v0.257c0,0.6,0.143,1.086,0.457,1.4c0.314,0.343,0.714,0.515,1.2,0.515s0.972-0.2,1.515-0.572
		c0.543-0.371,1.029-0.914,1.457-1.6v-1.886c-0.343-0.057-0.743-0.086-1.171-0.115c-0.429-0.028-0.8-0.028-1.086-0.028V27.286z
		 M130.574,20.97c1.572,0,2.715,0.315,3.429,0.915c0.715,0.629,1.086,1.6,1.086,2.972v7.602c0,0.4-0.228,0.6-0.686,0.6h-0.857
		c-0.457,0-0.714-0.2-0.714-0.6v-1.286c-1.086,1.457-2.287,2.172-3.601,2.172c-1.057,0-1.915-0.314-2.543-0.972
		c-0.658-0.628-0.972-1.514-0.972-2.629v-0.686c0-0.457,0.086-0.886,0.286-1.314c0.2-0.401,0.457-0.772,0.828-1.058
		c0.343-0.286,0.801-0.543,1.315-0.714c0.514-0.172,1.086-0.258,1.743-0.258c0.4,0,0.858,0.029,1.401,0.086
		c0.542,0.057,1.028,0.143,1.428,0.229v-1.343c0-0.715-0.171-1.229-0.514-1.515c-0.372-0.286-0.914-0.429-1.629-0.429
		c-0.429,0-0.914,0.029-1.486,0.115c-0.543,0.057-1.086,0.143-1.572,0.228h-0.057h-0.086c-0.4,0-0.6-0.171-0.6-0.571v-0.6
		c0-0.372,0.257-0.601,0.743-0.658c0.543-0.086,1.086-0.143,1.658-0.2C129.717,21,130.174,20.97,130.574,20.97 M123.001,16.255
		c0.2,0,0.429,0.029,0.686,0.057c0.228,0,0.486,0.057,0.743,0.086c0.2,0.028,0.314,0.114,0.4,0.2
		c0.057,0.114,0.086,0.257,0.086,0.429v0.485c0,0.372-0.143,0.572-0.458,0.572c-0.057,0-0.085,0-0.085-0.029h-0.086
		c-0.171-0.028-0.372-0.057-0.572-0.085c-0.228,0-0.4-0.029-0.6-0.029c-0.486,0-0.914,0.172-1.229,0.486
		c-0.342,0.314-0.514,0.8-0.514,1.486v1.343h2.086c0.457,0,0.686,0.2,0.686,0.6v0.486c0,0.4-0.229,0.6-0.686,0.6h-2.086v9.517
		c0,0.4-0.229,0.6-0.686,0.6h-0.971c-0.458,0-0.686-0.2-0.686-0.6v-9.517h-1.258c-0.457,0-0.686-0.2-0.686-0.6v-0.486
		c0-0.4,0.229-0.6,0.686-0.6h1.258v-1.229c0-1.257,0.371-2.229,1.057-2.829C120.772,16.569,121.744,16.255,123.001,16.255"/>
</g>
</svg>
