<?xml version="1.0" encoding="utf-8"?>
<!-- Generator: Adobe Illustrator 16.0.0, SVG Export Plug-In . SVG Version: 6.00 Build 0)  -->
<!DOCTYPE svg PUBLIC "-//W3C//DTD SVG 1.1//EN" "http://www.w3.org/Graphics/SVG/1.1/DTD/svg11.dtd">
<svg version="1.1" id="Layer_1" xmlns="http://www.w3.org/2000/svg" xmlns:xlink="http://www.w3.org/1999/xlink" x="0px" y="0px"
	 width="600.131px" height="657.643px" viewBox="0 0 600.131 657.643" enable-background="new 0 0 600.131 657.643"
	 xml:space="preserve">
<g>
	<defs>
		<rect id="SVGID_1_" width="600.131" height="657.643"/>
	</defs>
	<clipPath id="SVGID_2_">
		<use xlink:href="#SVGID_1_"  overflow="visible"/>
	</clipPath>
	<path clip-path="url(#SVGID_2_)" fill-rule="evenodd" clip-rule="evenodd" fill="#2B5467" d="M35.579,225.794
		c0.543,12.603,1.172,25.463,2.172,38.838c2.143,29.236,3.029,47.612,41.38,28.464c28.407-14.203,29.035-21.977,26.606-48.983
		c-1.229-13.775-2.457-27.436-3.686-40.982c-3.23-36.637,34.35-81.848,84.647-101.568c73.702-28.921,150.29-58.928,229.936-90.165
		c57.87-22.719,113.825-10.574,122.855,28.407c12.346,53.213,25.092,108.198,38.237,165.041
		c10.06,44.182-35.779,97.996-100.565,118.086c-24.205,7.716-48.267,15.433-71.444,22.52c-18.832,5.744-30.178,8.146-41.895,19.576
		c-12.517,12.203-13.174,29.522-4.687,41.096c15.574,21.263,34.808,13.719,52.726,8.488c24.177-7.059,48.697-14.231,73.502-21.463
		c43.924-12.831,87.305-6.944,114.768,12.918v251.576H154.977l-2.058-21.605c24.377-6.287,49.239-12.659,74.302-19.032
		c60.042-15.434,104.909-68.074,98.021-115.486c-8.687-60.472-17.118-118.229-25.662-177.587
		c-5.973-41.896-56.327-59.786-110.539-41.095C125.913,304.556,63.614,326.133,0,348.11V187.013
		C20.233,191.328,34.122,204.903,35.579,225.794"/>
</g>
</svg>
