<?xml version="1.0" encoding="utf-8"?>
<!-- Generator: Adobe Illustrator 16.0.0, SVG Export Plug-In . SVG Version: 6.00 Build 0)  -->
<!DOCTYPE svg PUBLIC "-//W3C//DTD SVG 1.1//EN" "http://www.w3.org/Graphics/SVG/1.1/DTD/svg11.dtd">
<svg version="1.1" id="Layer_1" xmlns="http://www.w3.org/2000/svg" xmlns:xlink="http://www.w3.org/1999/xlink" x="0px" y="0px"
	 width="132.5px" height="33.383px" viewBox="0 0 132.5 33.383" enable-background="new 0 0 132.5 33.383" xml:space="preserve">
<g>
	<defs>
		<rect id="SVGID_1_" width="132.5" height="33.383"/>
	</defs>
	<clipPath id="SVGID_2_">
		<use xlink:href="#SVGID_1_"  overflow="visible"/>
	</clipPath>
	<path clip-path="url(#SVGID_2_)" fill-rule="evenodd" clip-rule="evenodd" fill="#003C4D" d="M127.351,20.716
		c-0.354,0-0.777,0.008-1.268,0.028c-0.491,0.019-0.974,0.053-1.446,0.104v1.637c0.473,0.052,0.954,0.086,1.446,0.105
		c0.49,0.019,0.913,0.029,1.268,0.029c0.485,0,0.865-0.026,1.139-0.076c0.276-0.051,0.479-0.121,0.609-0.21
		c0.131-0.089,0.213-0.19,0.247-0.306c0.032-0.113,0.047-0.233,0.047-0.361c0-0.127-0.015-0.247-0.047-0.362
		c-0.034-0.114-0.116-0.215-0.247-0.304c-0.13-0.089-0.333-0.159-0.609-0.21C128.216,20.74,127.836,20.716,127.351,20.716
		 M132.5,21.973c0,0.431-0.076,0.833-0.228,1.209c-0.148,0.373-0.404,0.701-0.766,0.98c-0.359,0.278-0.852,0.499-1.475,0.656
		c-0.621,0.159-1.404,0.238-2.348,0.238h-0.433c-0.957,0-1.93-0.026-2.918-0.076c-0.989-0.051-1.937-0.127-2.84-0.229v-9.522h3.143
		v3.123c0.433-0.023,0.87-0.044,1.307-0.057c0.44-0.014,0.876-0.02,1.309-0.02l0.433-0.001c0.943,0,1.727,0.081,2.348,0.239
		c0.623,0.158,1.115,0.379,1.475,0.658c0.361,0.279,0.616,0.605,0.766,0.98c0.151,0.374,0.228,0.777,0.228,1.209V21.973z"/>
	<path clip-path="url(#SVGID_2_)" fill-rule="evenodd" clip-rule="evenodd" fill="#003C4D" d="M108.496,22.219
		c0.472,0,0.787-0.11,0.942-0.332c0.158-0.223,0.249-0.543,0.275-0.962l0.354-5.695h9.945v9.522h-3.145v-6.78h-3.911l-0.198,3.295
		c-0.037,0.597-0.123,1.128-0.255,1.591c-0.13,0.463-0.34,0.852-0.628,1.161c-0.289,0.312-0.658,0.547-1.111,0.705
		c-0.453,0.159-1.019,0.238-1.7,0.238c-0.261,0-0.529-0.012-0.806-0.037c-0.275-0.025-0.523-0.071-0.746-0.134v-2.628
		c0.144,0.024,0.308,0.04,0.491,0.048C108.188,22.217,108.352,22.219,108.496,22.219"/>
	<polygon clip-path="url(#SVGID_2_)" fill-rule="evenodd" clip-rule="evenodd" fill="#003C4D" points="87.582,24.752 87.582,17.991 
		83.849,17.991 83.849,15.229 94.481,15.229 94.481,17.991 90.728,17.991 90.728,24.752 	"/>
	<polygon clip-path="url(#SVGID_2_)" fill-rule="evenodd" clip-rule="evenodd" fill="#003C4D" points="82.757,15.229 82.757,24.752 
		79.612,24.752 79.612,18.886 74.089,24.752 70.944,24.752 70.944,15.229 74.089,15.229 74.089,21.096 79.612,15.229 	"/>
	<polygon clip-path="url(#SVGID_2_)" fill-rule="evenodd" clip-rule="evenodd" fill="#003C4D" points="60.872,15.229 60.872,18.657 
		66.414,18.657 66.414,15.229 69.56,15.229 69.56,24.752 66.414,24.752 66.414,21.324 60.872,21.324 60.872,24.752 57.727,24.752 
		57.727,15.229 	"/>
	<path clip-path="url(#SVGID_2_)" fill-rule="evenodd" clip-rule="evenodd" fill="#003C4D" d="M47.014,21.198L47.014,21.198h6.675
		c-0.266,0.963-1.567,0.956-2.628,0.956h-6.023v2.573h5.95c3.341,0,5.653-0.805,5.653-4.36v-0.352v-0.053v-0.349
		c0-3.555-2.312-4.362-5.653-4.362h-5.95v2.574h6.023c1.061,0,2.359-0.02,2.628,0.956h-6.676h0.001V21.198z"/>
	<path clip-path="url(#SVGID_2_)" fill-rule="evenodd" clip-rule="evenodd" fill="#003C4D" d="M97.62,21.198L97.62,21.198h6.676
		c-0.266,0.963-1.568,0.956-2.629,0.956h-6.022v2.573h5.95c3.34,0,5.653-0.805,5.653-4.36v-0.352v-0.053v-0.349
		c0-3.555-2.313-4.362-5.653-4.362h-5.95v2.574h6.022c1.062,0,2.36-0.02,2.629,0.956H97.62V21.198z"/>
	<path clip-path="url(#SVGID_2_)" fill-rule="evenodd" clip-rule="evenodd" fill="#003C4D" d="M17.572,18.991
		c0.168,1.333,0.34,2.7,0.514,4.095c0.134,1.071-0.907,2.265-2.296,2.632c-1.103,0.292-2.457,0.632-3.726,1.008
		c-0.173,0.038,0.554-0.145-1.847,0.479c-2.402,0.625-2.452-0.253-2.452-1.377c-0.047-1.15-0.095-3.357-0.115-3.78
		c-0.044-0.944,0.871-2.013,2.052-2.393c1.71-0.55,3.465-1.115,5.268-1.69C16.272,17.548,17.447,18.001,17.572,18.991"/>
	<path clip-path="url(#SVGID_2_)" fill-rule="evenodd" clip-rule="evenodd" fill="#0DA79E" d="M13.914,8.774
		c0.044,0.626,0.089,1.258,0.135,1.895c0.034,0.481-0.05,0.919,0.597,0.966c0.23,0.017,0.506-0.032,0.783-0.13l0.103,1
		c-1.398,0.466-2.691,0.902-4.081,1.37c-1.887,0.632-3.359,2.356-3.318,3.877c0.016,0.587,0.032,1.181,0.048,1.772
		c-1.761,0.539-3.48,1.06-5.156,1.574c-1.724,0.526-3.067-0.278-3.023-1.749c0.055-1.906,0.109-3.762,0.161-5.569
		c0.039-1.332,1.349-2.896,2.954-3.504c2.341-0.892,4.766-1.815,7.276-2.772C12.209,6.814,13.812,7.367,13.914,8.774"/>
	<path clip-path="url(#SVGID_2_)" fill-rule="evenodd" clip-rule="evenodd" fill="#8AC640" d="M26.701,15.402
		c0.154,0.562,0.743,1.104,1.636,0.929l3.612-1.055c2.65-0.748,5.248,0.146,5.704,2.062c0.664,2.806,1.359,5.731,2.083,8.781
		c0.527,2.219-1.573,4.552-4.587,5.112c-3.842,0.716-7.511,1.399-11.022,2.055c-2.548,0.474-4.741-0.836-4.94-2.853
		c-0.195-1.955-0.384-3.862-0.569-5.718c0.978-0.245,1.975-0.493,2.98-0.74c2.408-0.599,4.207-2.645,3.931-4.488
		c-0.181-1.22-0.337-2.266-0.514-3.45L26.701,15.402z"/>
	<path clip-path="url(#SVGID_2_)" fill-rule="evenodd" clip-rule="evenodd" fill="#FAA61F" d="M15.209,11.572
		c0.092-0.027,0.183-0.057,0.271-0.09c0.921-0.345,1.362-0.731,1.278-1.652c-0.06-0.651-0.12-1.297-0.18-1.937
		c-0.13-1.423,1.377-3.18,3.394-3.947C22.929,2.823,26,1.657,29.194,0.443c2.32-0.884,4.564-0.411,4.926,1.104
		c0.495,2.067,1.006,4.204,1.533,6.413c0.403,1.716-1.435,3.808-4.032,4.588c-1.369,0.411-2.719,0.814-4.04,1.213
		c-0.339,0.102-1.073,0.493-0.893,1.586l0.011,0.055l-1.684,0.635c-0.17-1.139-0.341-2.282-0.515-3.45
		c-0.24-1.627-2.258-2.323-4.433-1.596c-1.521,0.506-3.031,1.01-4.535,1.514l-0.103-1C15.354,11.531,15.282,11.553,15.209,11.572"/>
	<path clip-path="url(#SVGID_2_)" fill-rule="evenodd" clip-rule="evenodd" fill="#003C4D" d="M102.774,7.673
		c0.131,0,0.267,0.01,0.406,0.028c0.14,0.016,0.288,0.04,0.45,0.07c0.153,0.023,0.229,0.103,0.229,0.238v0.194
		c0,0.136-0.07,0.203-0.208,0.203c-0.036,0-0.062-0.002-0.084-0.009c-0.126-0.03-0.257-0.05-0.394-0.066
		c-0.133-0.014-0.259-0.02-0.368-0.02c-0.315,0-0.541,0.045-0.68,0.136c-0.14,0.09-0.209,0.215-0.209,0.375v0.079
		c0,0.112,0.034,0.201,0.105,0.265c0.068,0.066,0.188,0.131,0.354,0.195l0.981,0.39c0.314,0.123,0.54,0.27,0.679,0.441
		c0.142,0.171,0.211,0.368,0.211,0.592v0.195c-0.008,0.4-0.145,0.703-0.412,0.909c-0.27,0.206-0.705,0.31-1.312,0.31
		c-0.354,0-0.743-0.053-1.158-0.158c-0.161-0.036-0.234-0.119-0.219-0.249l0.01-0.239c0.013-0.135,0.08-0.203,0.198-0.203
		c0.012,0,0.049,0.007,0.106,0.018c0.179,0.053,0.356,0.094,0.535,0.124c0.179,0.029,0.343,0.045,0.495,0.045
		c0.336,0,0.567-0.042,0.69-0.125c0.126-0.083,0.188-0.211,0.188-0.388v-0.089c0-0.135-0.032-0.246-0.094-0.331
		c-0.063-0.085-0.174-0.158-0.334-0.218l-1.014-0.378c-0.312-0.119-0.54-0.26-0.678-0.425c-0.141-0.164-0.21-0.356-0.21-0.574V8.884
		c0-0.4,0.139-0.702,0.42-0.906C101.737,7.775,102.174,7.673,102.774,7.673 M98.478,8.302c-0.267,0-0.479,0.07-0.644,0.212
		C97.67,8.654,97.59,8.863,97.59,9.14v0.424h1.795V9.166c0-0.294-0.083-0.512-0.251-0.652C98.968,8.372,98.748,8.302,98.478,8.302
		 M98.478,7.673c0.591,0,1.038,0.135,1.341,0.403c0.304,0.267,0.453,0.661,0.453,1.18v0.52c0,0.136-0.029,0.235-0.087,0.297
		c-0.059,0.061-0.172,0.092-0.34,0.092H97.59v0.522c0,0.3,0.082,0.517,0.251,0.65c0.165,0.131,0.437,0.199,0.813,0.199
		c0.167,0,0.346-0.011,0.536-0.032c0.193-0.02,0.373-0.045,0.54-0.075c0.021-0.006,0.049-0.009,0.082-0.009
		c0.126,0,0.196,0.066,0.21,0.193l0.009,0.232c0.008,0.123-0.07,0.203-0.239,0.238c-0.2,0.041-0.407,0.07-0.615,0.088
		c-0.209,0.018-0.401,0.027-0.574,0.027c-0.684,0-1.172-0.127-1.464-0.386c-0.292-0.255-0.44-0.645-0.44-1.17V9.256
		c0-0.514,0.146-0.905,0.437-1.176C97.424,7.808,97.872,7.673,98.478,7.673 M94.617,7.673c0.141,0,0.276,0.007,0.408,0.023
		c0.133,0.015,0.279,0.037,0.439,0.066c0.152,0.035,0.228,0.117,0.228,0.247V8.24c0,0.123-0.068,0.184-0.207,0.184
		c-0.021,0-0.042-0.002-0.063-0.003c-0.022-0.003-0.044-0.007-0.073-0.015c-0.118-0.023-0.237-0.04-0.36-0.052
		c-0.123-0.011-0.245-0.019-0.371-0.019c-0.319,0-0.564,0.079-0.729,0.231c-0.167,0.153-0.25,0.371-0.25,0.653v1.423
		c0,0.307,0.089,0.532,0.271,0.677c0.181,0.144,0.418,0.217,0.709,0.217c0.16,0,0.303-0.009,0.425-0.023
		c0.12-0.015,0.242-0.034,0.357-0.057c0.022-0.007,0.05-0.009,0.086-0.009c0.125,0,0.195,0.067,0.207,0.204l0.013,0.221
		c0.005,0.082-0.01,0.14-0.048,0.176c-0.04,0.034-0.112,0.061-0.225,0.08c-0.159,0.029-0.308,0.047-0.444,0.056
		c-0.136,0.01-0.266,0.014-0.39,0.014c-1.235,0-1.851-0.536-1.851-1.609V9.282c0-0.519,0.15-0.916,0.45-1.193
		C93.497,7.813,93.971,7.673,94.617,7.673 M91.063,6.039c0.389,0,0.585,0.135,0.585,0.406v0.256c0,0.265-0.196,0.397-0.585,0.397
		c-0.384,0-0.574-0.132-0.574-0.397V6.445C90.489,6.174,90.68,6.039,91.063,6.039 M91.25,7.779c0.175,0,0.262,0.074,0.262,0.221
		v3.872c0,0.146-0.087,0.22-0.262,0.22h-0.365c-0.174,0-0.261-0.074-0.261-0.22V8c0-0.148,0.087-0.221,0.261-0.221H91.25z
		 M89.595,7.779c0.16,0,0.242,0.053,0.242,0.16c0,0.011-0.006,0.041-0.022,0.089l-1.419,3.878c-0.044,0.125-0.14,0.186-0.293,0.186
		h-0.7c-0.151,0-0.252-0.061-0.292-0.186L85.7,8.027c-0.015-0.047-0.021-0.077-0.021-0.088c0-0.107,0.082-0.16,0.24-0.16h0.396
		c0.155,0,0.252,0.063,0.294,0.187l1.148,3.577l1.148-3.577c0.042-0.124,0.142-0.187,0.293-0.187H89.595z M85.153,7.673
		c0.104,0,0.173,0.021,0.207,0.063c0.035,0.04,0.052,0.096,0.052,0.167v0.442c0,0.07-0.015,0.118-0.046,0.146
		c-0.03,0.026-0.082,0.036-0.151,0.031c-0.058-0.006-0.095-0.008-0.113-0.008h-0.094c-0.225,0-0.436,0.048-0.632,0.144
		C84.177,8.756,84,8.913,83.848,9.132v2.74c0,0.146-0.086,0.22-0.261,0.22h-0.366c-0.174,0-0.26-0.074-0.26-0.22V8
		c0-0.148,0.086-0.221,0.26-0.221h0.312c0.176,0,0.263,0.074,0.263,0.221v0.424c0.183-0.241,0.389-0.426,0.621-0.556
		C84.649,7.738,84.895,7.673,85.153,7.673 M80.084,8.302c-0.267,0-0.479,0.07-0.643,0.212c-0.164,0.14-0.246,0.349-0.246,0.626
		v0.424h1.797V9.166c0-0.294-0.084-0.512-0.251-0.652C80.574,8.372,80.355,8.302,80.084,8.302 M80.084,7.673
		c0.592,0,1.039,0.135,1.341,0.403c0.304,0.267,0.454,0.661,0.454,1.18v0.52c0,0.136-0.03,0.235-0.087,0.297
		c-0.062,0.061-0.175,0.092-0.342,0.092h-2.255v0.522c0,0.3,0.083,0.517,0.25,0.65c0.168,0.131,0.44,0.199,0.815,0.199
		c0.167,0,0.346-0.011,0.537-0.032c0.192-0.02,0.373-0.045,0.539-0.075c0.02-0.006,0.049-0.009,0.083-0.009
		c0.125,0,0.193,0.066,0.209,0.193l0.01,0.232c0.008,0.123-0.073,0.203-0.24,0.238c-0.203,0.041-0.406,0.07-0.615,0.088
		s-0.399,0.027-0.573,0.027c-0.684,0-1.171-0.127-1.465-0.386c-0.292-0.255-0.438-0.645-0.438-1.17V9.256
		c0-0.514,0.144-0.905,0.432-1.176C79.028,7.808,79.477,7.673,80.084,7.673 M75.965,7.673c0.131,0,0.268,0.01,0.404,0.028
		c0.142,0.016,0.29,0.04,0.45,0.07c0.154,0.023,0.23,0.103,0.23,0.238v0.194c0,0.136-0.07,0.203-0.209,0.203
		c-0.034,0-0.062-0.002-0.084-0.009c-0.125-0.03-0.257-0.05-0.392-0.066c-0.135-0.014-0.261-0.02-0.371-0.02
		c-0.312,0-0.538,0.045-0.679,0.136c-0.138,0.09-0.209,0.215-0.209,0.375v0.079c0,0.112,0.035,0.201,0.105,0.265
		c0.068,0.066,0.188,0.131,0.354,0.195l0.983,0.39c0.312,0.123,0.539,0.27,0.678,0.441c0.141,0.171,0.21,0.368,0.21,0.592v0.195
		c-0.008,0.4-0.144,0.703-0.413,0.909c-0.268,0.206-0.705,0.31-1.31,0.31c-0.357,0-0.742-0.053-1.16-0.158
		c-0.161-0.036-0.235-0.119-0.219-0.249l0.01-0.239c0.014-0.135,0.079-0.203,0.199-0.203c0.012,0,0.048,0.007,0.104,0.018
		c0.181,0.053,0.359,0.094,0.537,0.124c0.178,0.029,0.343,0.045,0.497,0.045c0.333,0,0.563-0.042,0.688-0.125
		c0.126-0.083,0.189-0.211,0.189-0.388v-0.089c0-0.135-0.032-0.246-0.094-0.331c-0.063-0.085-0.174-0.158-0.334-0.218l-1.014-0.378
		c-0.313-0.119-0.541-0.26-0.678-0.425c-0.14-0.164-0.21-0.356-0.21-0.574V8.884c0-0.4,0.14-0.702,0.418-0.906
		C74.926,7.775,75.364,7.673,75.965,7.673 M69.756,7.779c0.152,0,0.229,0.057,0.229,0.169c0,0.034-0.003,0.061-0.009,0.08
		l-2.174,5.522c-0.057,0.118-0.157,0.176-0.301,0.176h-0.347c-0.152,0-0.23-0.052-0.23-0.158c0-0.018,0.008-0.05,0.021-0.098
		l0.564-1.378h-0.104c-0.154,0-0.251-0.061-0.293-0.186l-1.305-3.879c-0.008-0.018-0.011-0.045-0.011-0.079
		c0-0.112,0.078-0.169,0.23-0.169h0.439c0.16,0,0.254,0.066,0.282,0.197l1.045,3.576l1.295-3.586
		c0.041-0.124,0.139-0.187,0.292-0.187H69.756z M63.736,6.63c0.153,0,0.229,0.074,0.229,0.222v0.927h1.096
		c0.175,0,0.262,0.074,0.262,0.221v0.177c0,0.148-0.087,0.22-0.262,0.22h-1.096v2.528c0,0.226,0.056,0.386,0.167,0.482
		c0.11,0.097,0.278,0.145,0.501,0.145c0.097,0,0.201-0.004,0.309-0.016c0.107-0.014,0.207-0.027,0.298-0.045
		c0.02-0.005,0.044-0.009,0.073-0.009c0.125-0.001,0.195,0.068,0.208,0.202l0.012,0.196c0.006,0.069-0.009,0.124-0.048,0.16
		c-0.039,0.035-0.096,0.06-0.172,0.078c-0.091,0.023-0.202,0.044-0.335,0.057c-0.132,0.015-0.251,0.023-0.354,0.023
		c-0.523,0-0.911-0.104-1.165-0.31c-0.256-0.206-0.382-0.548-0.382-1.024V8.397h-0.469c-0.174,0-0.262-0.072-0.262-0.22V8
		c0-0.148,0.088-0.221,0.262-0.221h0.469l0.135-0.945c0.022-0.135,0.105-0.203,0.252-0.203L63.736,6.63z M61.129,6.039
		c0.389,0,0.586,0.135,0.586,0.406v0.256c0,0.265-0.197,0.397-0.586,0.397c-0.383,0-0.574-0.132-0.574-0.397V6.445
		C60.556,6.174,60.747,6.039,61.129,6.039 M61.317,7.779c0.174,0,0.261,0.074,0.261,0.221v3.872c0,0.146-0.087,0.22-0.261,0.22
		h-0.366c-0.174,0-0.261-0.074-0.261-0.22V8c0-0.148,0.087-0.221,0.261-0.221H61.317z M59.087,6.057c0.175,0,0.262,0.074,0.262,0.22
		v5.595c0,0.146-0.087,0.22-0.262,0.22h-0.365c-0.174,0-0.261-0.074-0.261-0.22V6.277c0-0.146,0.087-0.219,0.261-0.219L59.087,6.057
		z M56.671,6.039c0.39,0,0.584,0.135,0.584,0.406v0.256c0,0.265-0.194,0.397-0.584,0.397c-0.383,0-0.574-0.132-0.574-0.397V6.445
		C56.098,6.174,56.289,6.039,56.671,6.039 M56.859,7.779c0.174,0,0.261,0.074,0.261,0.221v3.872c0,0.146-0.087,0.22-0.261,0.22
		h-0.366c-0.175,0-0.261-0.074-0.261-0.22V8c0-0.148,0.086-0.221,0.261-0.221H56.859z M54.046,7.673
		c0.138,0,0.273,0.007,0.406,0.023c0.132,0.015,0.28,0.037,0.439,0.066c0.152,0.035,0.23,0.117,0.23,0.247V8.24
		c0,0.123-0.07,0.184-0.21,0.184c-0.02,0-0.041-0.002-0.062-0.003c-0.021-0.003-0.045-0.007-0.074-0.015
		c-0.117-0.023-0.239-0.04-0.359-0.052c-0.122-0.011-0.245-0.019-0.37-0.019c-0.321,0-0.565,0.079-0.733,0.231
		c-0.166,0.153-0.25,0.371-0.25,0.653v1.423c0,0.307,0.091,0.532,0.271,0.677c0.182,0.144,0.419,0.217,0.712,0.217
		c0.16,0,0.301-0.009,0.422-0.023c0.122-0.015,0.242-0.034,0.36-0.057c0.021-0.007,0.048-0.009,0.083-0.009
		c0.127,0,0.195,0.067,0.21,0.204l0.01,0.221c0.007,0.082-0.008,0.14-0.047,0.176c-0.037,0.034-0.113,0.061-0.224,0.08
		c-0.16,0.029-0.308,0.047-0.444,0.056c-0.137,0.01-0.266,0.014-0.392,0.014c-1.232,0-1.849-0.536-1.849-1.609V9.282
		c0-0.519,0.15-0.916,0.451-1.193C52.925,7.813,53.397,7.673,54.046,7.673 M49.247,9.988c-0.297,0-0.524,0.066-0.673,0.194
		c-0.15,0.131-0.225,0.314-0.225,0.549v0.097c0,0.224,0.058,0.396,0.178,0.516c0.118,0.121,0.269,0.183,0.449,0.183
		s0.373-0.068,0.574-0.203c0.202-0.137,0.387-0.333,0.554-0.593v-0.68c-0.139-0.024-0.289-0.04-0.449-0.049
		C49.495,9.993,49.358,9.989,49.247,9.988L49.247,9.988z M49.29,7.673c0.591,0,1.024,0.112,1.294,0.336
		c0.271,0.224,0.407,0.587,0.407,1.087v2.776c0,0.146-0.086,0.22-0.26,0.22h-0.324c-0.173,0-0.261-0.074-0.261-0.22v-0.47
		c-0.41,0.531-0.867,0.796-1.368,0.796c-0.398,0-0.717-0.116-0.961-0.349c-0.245-0.233-0.366-0.554-0.366-0.968v-0.248
		c0-0.17,0.037-0.331,0.109-0.48c0.074-0.151,0.178-0.281,0.314-0.39c0.136-0.108,0.301-0.194,0.496-0.261
		c0.196-0.064,0.414-0.097,0.658-0.097c0.153,0,0.331,0.013,0.534,0.036c0.2,0.023,0.382,0.05,0.542,0.08V9.034
		c0-0.265-0.068-0.45-0.203-0.557c-0.137-0.105-0.339-0.159-0.611-0.159c-0.161,0-0.347,0.013-0.56,0.04
		c-0.212,0.027-0.408,0.056-0.59,0.085c-0.013,0-0.024,0-0.031,0.004c-0.008,0.003-0.017,0.004-0.032,0.004
		c-0.145,0-0.218-0.071-0.218-0.211V8.018c0-0.141,0.094-0.221,0.281-0.239c0.202-0.029,0.409-0.053,0.616-0.074
		C48.965,7.684,49.144,7.673,49.29,7.673 M46.434,5.95c0.076,0,0.16,0.005,0.25,0.014c0.091,0.008,0.185,0.023,0.282,0.039
		c0.076,0.012,0.127,0.037,0.152,0.075c0.025,0.038,0.038,0.09,0.038,0.155v0.176c0,0.137-0.06,0.203-0.178,0.203
		c-0.015,0-0.026,0-0.033-0.005c-0.006-0.002-0.016-0.003-0.031-0.003C46.851,6.591,46.78,6.583,46.7,6.578
		c-0.081-0.007-0.155-0.009-0.224-0.009c-0.188,0-0.345,0.057-0.47,0.172c-0.126,0.116-0.189,0.296-0.189,0.542v0.496h0.784
		c0.174,0,0.261,0.074,0.261,0.221v0.177c0,0.148-0.087,0.22-0.261,0.22h-0.784v3.475c0,0.146-0.086,0.22-0.261,0.22h-0.366
		c-0.173,0-0.259-0.074-0.259-0.22V8.397h-0.471c-0.174,0-0.261-0.072-0.261-0.22V8c0-0.148,0.087-0.221,0.261-0.221h0.471v-0.45
		c0.005-0.466,0.14-0.813,0.401-1.038C45.593,6.064,45.958,5.95,46.434,5.95"/>
</g>
</svg>
