<?xml version="1.0" encoding="utf-8"?>
<!-- Generator: Adobe Illustrator 16.0.0, SVG Export Plug-In . SVG Version: 6.00 Build 0)  -->
<!DOCTYPE svg PUBLIC "-//W3C//DTD SVG 1.1//EN" "http://www.w3.org/Graphics/SVG/1.1/DTD/svg11.dtd">
<svg version="1.1" id="Layer_1" xmlns="http://www.w3.org/2000/svg" xmlns:xlink="http://www.w3.org/1999/xlink" x="0px" y="0px"
	 width="511.98px" height="443.014px" viewBox="0 0 511.98 443.014" enable-background="new 0 0 511.98 443.014"
	 xml:space="preserve">
<g>
	<defs>
		<rect id="SVGID_1_" width="511.98" height="443.014"/>
	</defs>
	<clipPath id="SVGID_2_">
		<use xlink:href="#SVGID_1_"  overflow="visible"/>
	</clipPath>
	<path clip-path="url(#SVGID_2_)" fill="#ffffff" d="M0,392.124v-59.896h25.165V110.979H0.208V51.29h25.377c0-6.806-0.296-13.092,0.056-19.342
		C26.67,13.663,41.778-0.221,60.086,0.015c18.054,0.232,32.79,14.705,33.579,33.039c0.143,3.327-0.076,6.674,0.142,9.994
		c0.305,4.635,3.623,7.8,8.031,7.975c4.553,0.18,8.373-3.016,8.814-7.745c0.293-3.14,0.082-6.326,0.131-9.492
		c0.288-18.699,15.251-33.654,33.783-33.775c18.857-0.123,33.916,14.647,34.328,33.69c0.065,2.999-0.105,6.01,0.105,8.996
		c0.356,5.074,4.076,8.482,8.798,8.314c4.635-0.165,7.832-3.413,8.133-8.396c0.281-4.648,0.068-9.36,0.749-13.944
		c2.535-17.058,17.415-29.148,34.891-28.654c16.649,0.471,30.688,13.527,32.424,30.337c0.409,3.964,0.201,7.988,0.422,11.976
		c0.294,5.316,3.573,8.644,8.382,8.699c4.746,0.054,8.223-3.291,8.58-8.548c0.228-3.32,0.005-6.668,0.17-9.994
		c0.918-18.558,15.922-32.676,34.454-32.484c18.259,0.189,33.199,14.997,33.696,33.43c0.085,3.164-0.094,6.34,0.084,9.496
		c0.26,4.591,3.572,7.861,7.928,8.093c4.539,0.243,8.459-2.928,8.928-7.615c0.312-3.136,0.075-6.326,0.115-9.491
		c0.24-18.919,15.354-33.925,34.148-33.914c18.611,0.01,33.631,14.799,33.999,33.5c0.055,2.803,0.008,5.608,0.008,9.037h25.643
		v25.205h8.097c0.323-2.64,0.494-5.413,1.024-8.116c2.064-10.514,11.237-17.469,22.116-16.896
		c10.529,0.555,19.431,8.947,19.877,19.502c0.408,9.647,0.437,19.342-0.016,28.986c-0.507,10.831-10.053,19.401-20.97,19.594
		c-10.929,0.193-20.21-8.267-21.514-19.658c-0.206-1.802-0.222-3.625-0.343-5.734H460.8v25.319h-25.576v221.354h25.109
		c0.258,3.126,0.47,5.695,0.711,8.639h50.412v42.475H461c-0.198,2.95-0.372,5.508-0.58,8.597h-25.504
		c0,5.809,0.05,11.082-0.009,16.355c-0.22,19.904-14.944,34.889-34.184,34.831c-19.143-0.059-33.858-15.271-33.956-35.102
		c-0.014-2.666,0.146-5.348-0.085-7.994c-0.418-4.745-4.109-8.021-8.647-7.943c-4.637,0.078-7.976,3.354-8.274,8.252
		c-0.305,4.975,0.016,10.049-0.849,14.919c-3.061,17.264-18.604,29.066-36.064,27.799c-17.062-1.239-30.507-15.208-31.312-32.592
		c-0.138-2.994,0.029-6.002-0.11-8.996c-0.278-5.991-3.627-9.506-8.787-9.382c-4.928,0.118-8.033,3.597-8.244,9.344
		c-0.116,3.162,0.052,6.341-0.185,9.492c-1.404,18.768-16.294,32.512-34.79,32.201c-18.197-0.306-32.783-15.017-33.412-33.74
		c-0.1-2.996,0.074-6.004-0.078-8.996c-0.251-4.951-3.541-8.19-8.201-8.284c-4.6-0.091-8.239,3.05-8.676,7.889
		c-0.299,3.308-0.08,6.66-0.159,9.991c-0.442,18.562-15.706,33.274-34.361,33.144c-18.314-0.129-33.424-15.018-33.766-33.295
		c-0.06-3.165,0.144-6.343-0.064-9.496c-0.333-5.04-4.088-8.417-8.858-8.244c-4.6,0.167-7.818,3.498-8.096,8.438
		c-0.28,4.977,0.001,10.049-0.868,14.919c-3.031,16.985-18.406,28.693-35.726,27.623c-17.055-1.056-30.826-15.045-31.574-32.301
		c-0.258-5.965-0.041-11.949-0.041-18.513H0z M247.25,221.47h-0.026c0,35.315-0.013,70.629,0.023,105.946
		c0.003,3.156,0.055,6.353,0.536,9.461c2.063,13.34,15.741,22.964,29.02,20.572c13.336-2.402,21.705-12.674,21.721-26.998
		c0.05-44.811,0.021-89.62,0.021-134.43c0-27.986,0.095-55.972-0.038-83.957c-0.087-18.112-15.148-30.22-32.039-26.042
		c-11.717,2.898-19.157,12.954-19.188,26.503C247.195,148.839,247.25,185.155,247.25,221.47 M213.034,221.478
		c0-36.815,0.109-73.629-0.054-110.443c-0.065-14.774-11.327-25.914-25.489-25.897c-14.081,0.017-25.547,11.378-25.565,25.937
		c-0.092,73.628-0.053,147.257-0.028,220.886c0.002,6.383,2.049,12.11,6.283,16.947c7.175,8.196,18.034,10.972,28.141,7.262
		c10.276-3.771,16.665-12.816,16.688-24.249C213.086,295.107,213.039,258.292,213.034,221.478 M332.683,221.251
		c0,36.649-0.026,73.298,0.013,109.946c0.015,15.065,10.966,26.543,25.271,26.651c14.484,0.111,25.763-11.495,25.831-26.686
		c0.055-12.327,0.003-24.654,0.003-36.982c0.003-60.803-0.003-121.606,0.019-182.411c0.004-9.345-3.582-16.89-11.336-22.12
		c-8.286-5.591-17.199-6.153-26.029-1.519c-8.988,4.717-13.73,12.423-13.746,22.673
		C332.652,147.621,332.686,184.436,332.683,221.251 M76.684,221.478c0,36.646-0.041,73.292,0.02,109.938
		c0.024,15.013,11.14,26.424,25.479,26.411c14.323-0.013,25.569-11.427,25.581-26.37c0.06-73.458,0.089-146.917-0.128-220.374
		c-0.014-4.442-1.474-9.295-3.601-13.234c-5.452-10.101-17.107-14.638-28.22-11.826c-11.111,2.812-19.05,12.735-19.082,24.518
		C76.631,147.52,76.695,184.499,76.684,221.478"/>
</g>
</svg>
