<?xml version="1.0" encoding="utf-8"?>
<!-- Generator: Adobe Illustrator 16.0.0, SVG Export Plug-In . SVG Version: 6.00 Build 0)  -->
<!DOCTYPE svg PUBLIC "-//W3C//DTD SVG 1.1//EN" "http://www.w3.org/Graphics/SVG/1.1/DTD/svg11.dtd">
<svg version="1.1" id="Layer_1" xmlns="http://www.w3.org/2000/svg" xmlns:xlink="http://www.w3.org/1999/xlink" x="0px" y="0px"
	 width="20px" height="21px" viewBox="0 0 20 21" enable-background="new 0 0 20 21" xml:space="preserve">
<path fill="#ffffff" d="M13,12h4V8c0-2.206-1.794-4-4-4H9V2h3V0H4v2h3v2H0v4h13V12z"/>
<path fill="#ffffff" d="M14,15c0,0.553,0.447,1,1,1s1-0.447,1-1s-0.447-1-1-1S14,14.447,14,15"/>
<path fill="#ffffff" d="M13,16.5c-0.553,0-1,0.447-1,1s0.447,1,1,1s1-0.447,1-1S13.553,16.5,13,16.5"/>
<path fill="#ffffff" d="M17,16.5c-0.553,0-1,0.447-1,1s0.447,1,1,1s1-0.447,1-1S17.553,16.5,17,16.5"/>
<path fill="#ffffff" d="M15,19c-0.553,0-1,0.447-1,1s0.447,1,1,1s1-0.447,1-1S15.553,19,15,19"/>
<path fill="#ffffff" d="M11,19c-0.553,0-1,0.447-1,1s0.447,1,1,1s1-0.447,1-1S11.553,19,11,19"/>
<path fill="#ffffff" d="M19,19c-0.553,0-1,0.447-1,1s0.447,1,1,1s1-0.447,1-1S19.553,19,19,19"/>
</svg>
