<?xml version="1.0" encoding="utf-8"?>
<!-- Generator: Adobe Illustrator 16.0.0, SVG Export Plug-In . SVG Version: 6.00 Build 0)  -->
<!DOCTYPE svg PUBLIC "-//W3C//DTD SVG 1.1//EN" "http://www.w3.org/Graphics/SVG/1.1/DTD/svg11.dtd">
<svg version="1.1" id="Layer_1" xmlns="http://www.w3.org/2000/svg" xmlns:xlink="http://www.w3.org/1999/xlink" x="0px" y="0px"
	 width="512.12px" height="511.791px" viewBox="0 0 512.12 511.791" enable-background="new 0 0 512.12 511.791"
	 xml:space="preserve">
<g>
	<defs>
		<rect id="SVGID_1_" width="512.12" height="511.791"/>
	</defs>
	<clipPath id="SVGID_2_">
		<use xlink:href="#SVGID_1_"  overflow="visible"/>
	</clipPath>
	<path clip-path="url(#SVGID_2_)" fill="#ffffff" d="M79.883,127.514h128.054V0.119h48.062v127.526h31.935v120.234
		c34.823-21.983,71.656-29.236,111.117-20.713c30.745,6.64,56.67,22.024,77.277,45.803c41.784,48.214,47.48,116.697,14.466,170.08
		c-33.329,53.89-97.291,79.81-158.276,64.29c-60.575-15.415-110.076-71.354-108.608-144.612c-1.321,0.584-2.422,1.128-3.562,1.568
		c-13.309,5.133-26.54,10.489-39.995,15.204c-3.32,1.163-4.384,2.21-4.37,5.653c0.129,30.828,0.065,61.656,0.072,92.485
		c0.004,19.699-13.562,34.137-32.079,34.108c-18.478-0.029-31.9-14.429-31.91-34.266c-0.015-30.662-0.014-61.322-0.019-91.984
		c0-1.489,0-2.979,0-4.479c-7.255-2.157-14.398-3.829-21.212-6.381c-42.111-15.77-72.727-43.206-86.079-87.195
		c-2.863-9.43-4.351-19.619-4.463-29.481c-0.485-42.322-0.22-84.652-0.221-126.979c0-0.824,0.074-1.648,0.141-3.033h31.857V63.597V0
		h47.814V127.514z M254.838,367.153c0.306,0.089,0.613,0.178,0.919,0.266c0.519,5.8,0.705,11.651,1.609,17.391
		c8.976,56.989,59.047,97.625,116.687,94.827c56.36-2.736,102.418-48.527,105.863-105.25
		c5.047-83.107-80.56-142.928-156.656-109.174c-21.255,9.429-39.402,22.858-49.15,45.215c-1.846,4.231-4.869,7.934-7.121,12.006
		c-2.076,3.754-4.64,7.49-5.599,11.562C258.809,344.955,256.971,356.089,254.838,367.153 M48.063,175.987c0,2.164,0,3.965,0,5.766
		c0.004,23.659,0.215,47.321-0.047,70.977c-0.243,21.973,7.879,40.224,23.522,55.283c35.384,34.063,96.863,37.284,136.806,6.999
		c20.91-15.855,32.217-36.64,31.782-63.465c-0.382-23.486-0.091-46.983-0.097-70.475c0-1.618,0-3.235,0-5.085H48.063z"/>
	<path clip-path="url(#SVGID_2_)" fill="#ffffff" d="M320.965,461.085c10.174-30.576,20.537-61.719,31.046-93.299h-31.823
		c1.516-3.966,2.803-7.469,4.187-10.934c8.635-21.626,17.341-43.224,25.883-64.886c1.179-2.988,2.472-4.366,6.042-4.325
		c19.647,0.225,39.298,0.106,59.719,0.106c-8.524,21.39-16.857,42.296-25.462,63.882h39.865
		C393.815,388.235,357.287,424.764,320.965,461.085"/>
</g>
</svg>
