<?xml version="1.0" encoding="utf-8"?>
<!-- Generator: Adobe Illustrator 16.0.0, SVG Export Plug-In . SVG Version: 6.00 Build 0)  -->
<!DOCTYPE svg PUBLIC "-//W3C//DTD SVG 1.1//EN" "http://www.w3.org/Graphics/SVG/1.1/DTD/svg11.dtd">
<svg version="1.1" id="Layer_1" xmlns="http://www.w3.org/2000/svg" xmlns:xlink="http://www.w3.org/1999/xlink" x="0px" y="0px"
	 width="438.803px" height="503.668px" viewBox="0 0 438.803 503.668" enable-background="new 0 0 438.803 503.668"
	 xml:space="preserve">
<g>
	<defs>
		<rect id="SVGID_1_" width="438.803" height="503.668"/>
	</defs>
	<clipPath id="SVGID_2_">
		<use xlink:href="#SVGID_1_"  overflow="visible"/>
	</clipPath>
	<path clip-path="url(#SVGID_2_)" fill="#ffffff" d="M438.803,210.825c-2.725,80.082-38.446,141.401-107.685,181.366
		c-83.087,47.955-184.551,38.574-257.37-23.754C16.622,319.542-8.433,256.274,2.508,181.486
		C13.617,105.553,57.462,52.751,126.025,20.118C157.823,4.983,191.809-0.827,226.974,0.094
		c88.177,2.31,168.884,58.752,198.537,138.778C434.102,162.058,438.66,185.936,438.803,210.825 M163.464,253.801
		c-0.426-1.106-0.516-1.618-0.787-2.002c-11.613-16.465-15.843-34.549-12.362-54.487c0.262-1.5-1.203-3.992-2.602-4.985
		c-15.412-10.935-29.835-22.991-42.444-37.094c-6.994-7.822-13.486-16.093-20.493-23.902c-8.911-9.932-18.829-11.216-28.944-2.528
		c-5.773,4.959-10.982,11.393-14.338,18.202c-12.142,24.639-13.635,50.81-8.695,77.504c2.574,13.906,7.229,27.005,16.373,38.115
		c7.504,9.119,16.937,13.153,28.777,10.721c17.591-3.614,35.24-6.971,52.765-10.884
		C141.676,260.013,152.454,256.743,163.464,253.801 M175.941,155.102c1.254-0.353,1.624-0.363,1.876-0.541
		c16.588-11.717,34.784-16.148,54.921-12.54c1.46,0.262,3.781-1.317,4.919-2.69c7.966-9.61,15.017-20.089,23.728-28.946
		c11.536-11.73,24.104-22.485,36.625-33.197c13.345-11.417,9.579-24.029,1.148-32.025c-6.143-5.825-13.594-10.864-21.329-14.301
		c-19.943-8.862-41.188-10.423-62.686-7.948c-16.71,1.924-32.688,6.267-46.408,16.695c-10.406,7.909-14.67,18.195-12.08,31.141
		c2.903,14.514,5.512,29.096,8.799,43.522C168.55,127.862,172.362,141.288,175.941,155.102 M274.669,167.414
		c0.927,1.72,1.179,2.327,1.546,2.853c11.313,16.215,15.591,34.019,11.887,53.533c-0.542,2.856,0.597,4.163,2.719,5.624
		c18.487,12.729,35.05,27.591,49.453,44.844c5.227,6.263,10.505,12.494,16.016,18.504c4.827,5.267,11.185,7.174,17.756,4.599
		c4.815-1.886,10.003-4.627,13.169-8.504c5.185-6.347,9.964-13.488,12.967-21.066c9.661-24.384,10.437-49.629,4.668-75.082
		c-3.014-13.295-7.969-25.754-17.54-35.893c-7.188-7.614-15.908-10.582-26.266-8.675c-8.506,1.566-17.106,2.699-25.524,4.637
		C315.445,157.409,295.456,162.392,274.669,167.414 M262.616,266.604c-1.364,0.64-1.852,0.786-2.247,1.065
		c-16.315,11.475-34.226,15.948-53.941,12.066c-3.214-0.634-4.449,1.149-5.91,3.273c-14.076,20.467-30.943,38.316-50.338,53.826
		c-4.544,3.634-8.904,7.531-13.077,11.587c-5.49,5.335-6.609,11.97-3.721,18.841c1.638,3.898,4.096,7.662,6.942,10.8
		c6.517,7.188,15.037,11.474,24.034,14.74c20.487,7.438,41.618,8.832,63.018,5.738c15.631-2.26,30.526-6.85,43.19-16.906
		c9.737-7.73,13.849-17.61,11.431-29.979c-2.584-13.22-4.832-26.516-7.841-39.638C270.705,296.973,266.58,282.08,262.616,266.604
		 M219.796,173.235c-20.886-0.191-38.019,16.451-38.378,37.28c-0.36,20.778,16.906,38.244,37.895,38.334
		c20.585,0.089,37.854-17.175,37.871-37.857C257.2,190.448,240.341,173.423,219.796,173.235"/>
	<path clip-path="url(#SVGID_2_)" fill="#ffffff" d="M147.694,432.64c47.971,14.27,95.545,13.848,143.442-0.151
		c2.809,8.505,5.461,16.516,8.101,24.529c3.174,9.632,6.406,19.245,9.487,28.906c3.22,10.097-2.309,17.701-12.968,17.711
		c-51.139,0.045-102.277,0.046-153.417-0.006c-10.649-0.012-16.172-7.674-12.846-17.745c5.579-16.895,11.29-33.745,16.963-50.607
		C146.713,434.515,147.139,433.811,147.694,432.64 M219.238,483.707v-0.031c5.497,0,10.997,0.106,16.491-0.028
		c6.858-0.168,11.275-4.175,11.378-10.069c0.102-5.942-4.221-10.203-11.035-10.313c-11.158-0.182-22.322-0.2-33.481-0.045
		c-6.743,0.093-11.226,4.44-11.165,10.263c0.062,5.85,4.579,10.024,11.321,10.196C208.241,483.819,213.741,483.707,219.238,483.707"
		/>
</g>
</svg>
