<?xml version="1.0" encoding="utf-8"?>
<!-- Generator: Adobe Illustrator 16.0.0, SVG Export Plug-In . SVG Version: 6.00 Build 0)  -->
<!DOCTYPE svg PUBLIC "-//W3C//DTD SVG 1.1//EN" "http://www.w3.org/Graphics/SVG/1.1/DTD/svg11.dtd">
<svg version="1.1" id="Layer_1" xmlns="http://www.w3.org/2000/svg" xmlns:xlink="http://www.w3.org/1999/xlink" x="0px" y="0px"
	 width="394.353px" height="359.698px" viewBox="0 0 394.353 359.698" enable-background="new 0 0 394.353 359.698"
	 xml:space="preserve">
<g>
	<defs>
		<rect id="SVGID_1_" width="394.353" height="359.698"/>
	</defs>
	<clipPath id="SVGID_2_">
		<use xlink:href="#SVGID_1_"  overflow="visible"/>
	</clipPath>
	<path clip-path="url(#SVGID_2_)" fill="#ffffff" d="M394.353,173.739c-0.415,47.401-6.614,87.562-24.248,125.355
		c-8.603,18.437-19.511,35.312-36.11,47.692c-23.569,17.58-48.944,17.169-72.097-1.001c-3.266-2.562-6.666-5.186-9.179-8.423
		c-4.776-6.157-11.055-9.758-17.979-12.825c-10.029-4.44-19.917-9.21-29.778-14.019c-2.549-1.243-4.09-1.145-5.779,1.334
		c-2.812,4.121-5.974,8.004-9.012,11.969c-15.465,20.184-41.264,26.615-64.376,15.88c-14.173-6.584-28.318-13.24-42.314-20.188
		c-19.977-9.917-29.675-26.423-29.999-48.542c-0.132-8.994-0.089-17.996,0.174-26.986c0.101-3.45-0.894-5.289-4.201-6.753
		c-10.485-4.643-20.89-9.501-31.088-14.74c-3.222-1.655-6.635-4.239-8.363-7.3c-13.339-23.628-13.404-47.499,0.214-71.054
		c1.687-2.918,4.91-5.492,8.018-6.964C92.615,101.962,167.086,66.94,241.489,31.773c2.742-1.296,5.298-3.392,7.363-5.644
		c11.364-12.393,24.056-22.435,41.258-25.361c16.158-2.748,30.296,2.066,43.108,11.429c16.295,11.906,27.165,28.203,35.83,46.06
		c13.061,26.914,20.146,55.52,23.098,85.176C393.349,155.51,393.921,167.65,394.353,173.739 M238.441,177.356
		c0.257,28.86,3.414,55.215,11.77,80.736c6.201,18.938,13.993,37.115,28.726,51.279c12.918,12.421,26.06,12.403,39.183,0.17
		c8.413-7.843,14.414-17.425,19.355-27.679c11.992-24.889,17.886-51.351,20.098-78.761c2.925-36.246-0.271-71.801-12.216-106.297
		c-6.086-17.573-13.827-34.361-27.852-47.245c-12.762-11.724-25.279-11.524-38.073,0.191c-8.999,8.24-15.231,18.439-20.365,29.355
		C244.114,110.888,239.026,144.717,238.441,177.356 M172.781,295.397c-29.53-13.902-58.274-27.436-87.511-41.2
		c-0.252,5.75-0.437,10.561-0.678,15.367c-0.519,10.379,3.593,17.958,13.18,22.467c13.826,6.502,27.551,13.217,41.386,19.699
		c8.708,4.08,17.983,2.468,24.248-4.335C166.64,303.881,169.325,299.862,172.781,295.397"/>
	<path clip-path="url(#SVGID_2_)" fill="#ffffff" d="M257.061,178.5c2.059-12.239,4.214-24.962,6.331-37.69c0.607-3.65,2.5-4.655,6.236-4.276
		c21.41,2.17,38.171,18.456,39.638,38.841c1.653,22.964-11.501,41.378-33.354,46.696c-0.16,0.039-0.31,0.126-0.471,0.163
		c-9.457,2.186-10.829,1.75-12.664-7.519C260.464,203.032,259.018,191.179,257.061,178.5"/>
</g>
</svg>
